<svg width="24" height="24" viewBox="0 0 20 20" version="1.1" xmlns="http://www.w3.org/2000/svg" aria-hidden="true" focusable="false">
	<path d="M 14.635 1.951 C 13.765 0.958 12.196 0.534 10.186 0.534 L 4.355 0.534 C 3.943 0.534 3.593 0.832 3.527 1.238 L 1.101 16.639 C 1.052 16.944 1.288 17.218 1.596 17.218 L 5.197 17.218 L 6.101 11.484 L 6.071 11.662 C 6.136 11.256 6.484 10.957 6.894 10.957 L 8.605 10.957 C 11.967 10.957 14.597 9.593 15.367 5.643 C 15.389 5.526 15.41 5.412 15.428 5.302 C 15.33 5.25 15.33 5.25 15.428 5.302 C 15.654 3.841 15.423 2.847 14.635 1.951" fill="#27346A"></path>
	<path d="M 7.478 4.775 C 7.577 4.728 7.683 4.705 7.792 4.705 L 12.366 4.705 C 12.906 4.705 13.41 4.739 13.875 4.813 C 14.003 4.836 14.131 4.859 14.258 4.889 C 14.44 4.928 14.618 4.976 14.794 5.035 C 15.02 5.11 15.232 5.2 15.428 5.302 C 15.654 3.841 15.423 2.847 14.635 1.951 C 13.765 0.958 12.196 0.534 10.186 0.534 L 4.355 0.534 C 3.943 0.534 3.593 0.834 3.527 1.238 L 1.101 16.639 C 1.052 16.944 1.288 17.218 1.596 17.218 L 5.197 17.218 L 7.072 5.321 C 7.109 5.084 7.26 4.879 7.478 4.775 Z" fill="#27346A"></path>
	<path d="M 15.367 5.643 C 14.597 9.593 11.967 10.957 8.605 10.957 L 6.894 10.957 C 6.483 10.957 6.136 11.256 6.071 11.662 L 4.947 18.794 C 4.906 19.059 5.111 19.3 5.38 19.3 L 8.414 19.3 C 8.773 19.3 9.08 19.039 9.135 18.684 L 9.165 18.529 L 9.738 14.905 L 9.775 14.704 C 9.829 14.35 10.136 14.087 10.494 14.087 L 10.949 14.087 C 13.89 14.087 16.191 12.893 16.864 9.438 C 17.146 7.995 17.001 6.789 16.257 5.943 C 16.032 5.687 15.751 5.475 15.428 5.302 C 15.41 5.412 15.389 5.526 15.367 5.643 Z" fill="#2790C3"></path>
	<path d="M 14.622 4.98 C 14.501 4.945 14.38 4.915 14.258 4.889 C 14.131 4.861 14.004 4.837 13.875 4.816 C 13.41 4.739 12.906 4.705 12.366 4.705 L 7.794 4.705 C 7.683 4.705 7.577 4.728 7.478 4.777 C 7.26 4.879 7.109 5.085 7.073 5.323 L 6.101 11.484 L 6.071 11.662 C 6.136 11.256 6.484 10.957 6.894 10.957 L 8.605 10.957 C 11.967 10.957 14.597 9.593 15.367 5.643 C 15.389 5.526 15.41 5.412 15.428 5.302 C 15.232 5.201 15.021 5.11 14.796 5.035 C 14.736 5.017 14.679 4.999 14.622 4.98" fill="#1F264F"></path>
</svg>
